# File created by Blade
# Date/Time:  Wed Jan 21 14:58:10 2015
# Frame Rate: 120.000 fps
#------------------------------------------------------
:FULLY-SPECIFIED
:DEGREES
371
root 16.324686 34.982631 -22.473960 -148.961219 -66.279323 -204.472786
Spine -30.489413 51.601897 -25.275625
Head 14.957017 25.136366 1.957637
LeftShoulder -13.325739 -28.563761 22.120369
LeftArm -12.408987 -1.204360 -7.018448
LeftForeArm 11.750642 -0.000000 -5.110593
LeftHand -11.415797 0.000000 -2.768585
LeftHandThumb1 -26.253704 0.000000 33.147579
RightShoulder 5.793893 2.435369 -12.795694
RightArm 53.774867 11.648253 25.448321
RightForeArm -38.921904 -0.000000 8.868509
RightHand -5.940643 -0.000000 9.653364
RightHandThumb1 -24.326973 -0.000000 -32.862282
LeftUpLeg -16.925190 -33.079231 0.180361
LeftLeg -1.283140 -0.000000 0.000000
LeftFoot -8.781864 6.430788 -12.885879
LeftToeBase 31.138716 -0.000000 -0.000000
RightUpLeg 10.058354 -34.977057 -7.554686
RightLeg -2.591509 -0.000000 0.000000
RightFoot -36.977085 -40.218072 29.318973
RightToeBase 22.030667 -0.000000 -0.000000
372
root 16.332449 34.985837 -22.477520 -149.353854 -66.023924 -204.105766
Spine -30.432547 51.417162 -25.157651
Head 14.906654 24.755287 1.891358
LeftShoulder -13.263808 -28.618889 22.064141
LeftArm -12.240480 -1.237531 -7.025286
LeftForeArm 11.781040 -0.000000 -5.071017
LeftHand -11.535351 -0.000000 -2.575603
LeftHandThumb1 -26.253704 0.000000 33.147579
RightShoulder 5.702748 2.468155 -12.763303
RightArm 53.590559 11.516631 25.173657
RightForeArm -38.878048 -0.000000 8.923240
RightHand -5.923956 -0.000000 9.672133
RightHandThumb1 -24.326973 -0.000000 -32.862282
LeftUpLeg -16.850406 -32.930914 0.184844
LeftLeg -1.287949 -0.000000 0.000000
LeftFoot -8.860687 6.558521 -12.886750
LeftToeBase 31.189792 -0.000000 -0.000000
RightUpLeg 10.091208 -34.870874 -7.569508
RightLeg -2.684368 -0.000000 0.000000
RightFoot -36.831615 -40.065027 29.252566
RightToeBase 21.902077 -0.000000 -0.000000
373
root 16.339621 34.989465 -22.480659 -149.739911 -65.761610 -203.749131
Spine -30.371139 51.249461 -25.028221
Head 14.921213 24.508679 1.927833
LeftShoulder -13.178970 -28.651223 21.962286
LeftArm -12.066308 -1.267001 -7.031545
LeftForeArm 11.771372 -0.000000 -5.010371
LeftHand -11.572097 0.000000 -2.519057
LeftHandThumb1 -26.253704 0.000000 33.147579
RightShoulder 5.654846 2.572234 -12.759330
RightArm 53.369139 11.569698 25.249100
RightForeArm -39.015468 -0.000000 8.943468
RightHand -5.986976 -0.000000 9.873917
RightHandThumb1 -24.326973 -0.000000 -32.862282
LeftUpLeg -16.770571 -32.788049 0.183150
LeftLeg -1.293158 -0.000000 0.000000
LeftFoot -8.932413 6.709829 -12.914300
LeftToeBase 31.074513 -0.000000 -0.000000
RightUpLeg 10.103116 -34.703993 -7.576059
RightLeg -2.741562 -0.000000 0.000000
RightFoot -36.730558 -40.022419 29.174386
RightToeBase 21.854132 -0.000000 -0.000000
374
root 16.347839 34.992023 -22.483527 -150.103994 -65.489744 -203.398431
Spine -30.331647 51.046074 -24.940006
Head 14.868926 24.161392 1.946302
LeftShoulder -13.104166 -28.720100 21.934864
LeftArm -11.918166 -1.265427 -7.054494
LeftForeArm 11.705828 -0.000000 -5.032402
LeftHand -11.427137 0.000000 -2.554053
LeftHandThumb1 -26.253704 0.000000 33.147579
RightShoulder 5.615539 2.507254 -12.760764
RightArm 53.189343 11.721287 25.291368
RightForeArm -39.046692 -0.000000 9.002807
RightHand -6.014636 -0.000000 9.817153
RightHandThumb1 -24.326973 -0.000000 -32.862282
LeftUpLeg -16.706580 -32.636914 0.187596
LeftLeg -1.301166 -0.000000 0.000000
LeftFoot -9.003882 6.864755 -12.890761
LeftToeBase 31.013552 -0.000000 -0.000000
RightUpLeg 10.124007 -34.594294 -7.586283
RightLeg -2.853886 -0.000000 0.000000
RightFoot -36.568758 -39.935335 29.022698
RightToeBase 21.899235 -0.000000 -0.000000
375
root 16.355007 34.995007 -22.485651 -150.486021 -65.221063 -203.023289
Spine -30.283235 50.862483 -24.834751
Head 14.771921 23.867443 1.902668
LeftShoulder -13.086467 -28.771344 21.910266
LeftArm -11.696960 -1.334997 -7.111027
LeftForeArm 11.803697 -0.000000 -5.037262
LeftHand -11.393653 0.000000 -2.543098
LeftHandThumb1 -26.253704 0.000000 33.147579
RightShoulder 5.506158 2.472959 -12.762045
RightArm 53.078380 11.811658 25.295388
RightForeArm -39.075304 -0.000000 8.997431
RightHand -6.009461 -0.000000 9.849304
RightHandThumb1 -24.326973 -0.000000 -32.862282
LeftUpLeg -16.649399 -32.499063 0.210904
LeftLeg -1.308581 -0.000000 0.000000
LeftFoot -9.088291 7.032452 -12.891098
LeftToeBase 31.024455 -0.000000 -0.000000
RightUpLeg 10.121041 -34.494135 -7.584296
RightLeg -2.925333 -0.000000 0.000000
RightFoot -36.423991 -39.808095 28.918352
RightToeBase 22.093513 -0.000000 -0.000000
376
root 16.361884 34.998392 -22.489500 -150.863627 -64.928348 -202.653101
Spine -30.282118 50.657564 -24.762425
Head 14.726258 23.543821 1.921055
LeftShoulder -13.007433 -28.891690 21.952145
LeftArm -11.608295 -1.273048 -7.196195
LeftForeArm 11.844832 -0.000000 -5.034697
LeftHand -11.294034 -0.000000 -2.482445
LeftHandThumb1 -26.253704 0.000000 33.147579
RightShoulder 5.460481 2.506231 -12.708551
RightArm 52.867063 11.781065 25.191602
RightForeArm -38.918227 0.000000 9.039599
RightHand -6.055575 -0.000000 9.825347
RightHandThumb1 -24.326973 -0.000000 -32.862282
LeftUpLeg -16.583388 -32.349155 0.224109
LeftLeg -1.322527 -0.000000 0.000000
LeftFoot -9.184941 7.220051 -12.903234
LeftToeBase 30.955047 -0.000000 -0.000000
RightUpLeg 10.120165 -34.405492 -7.593951
RightLeg -2.996451 -0.000000 0.000000
RightFoot -36.250741 -39.644053 28.792865
RightToeBase 22.074282 -0.000000 -0.000000
377
root 16.368178 35.001617 -22.494123 -151.242744 -64.634988 -202.299989
Spine -30.207383 50.423324 -24.623896
Head 14.711692 23.266849 1.988304
LeftShoulder -13.025961 -28.711350 21.926478
LeftArm -11.331978 -1.313253 -7.325213
LeftForeArm 11.707495 -0.000000 -5.082309
LeftHand -11.248425 -0.000000 -2.479117
LeftHandThumb1 -26.253704 0.000000 33.147579
RightShoulder 5.493344 2.679776 -12.673026
RightArm 52.533232 11.722433 25.201874
RightForeArm -38.998575 -0.000000 9.148576
RightHand -6.075144 -0.000000 9.884339
RightHandThumb1 -24.326973 -0.000000 -32.862282
LeftUpLeg -16.492322 -32.225346 0.232056
LeftLeg -1.347922 -0.000000 0.000000
LeftFoot -9.256536 7.426542 -12.915612
LeftToeBase 30.868999 -0.000000 -0.000000
RightUpLeg 10.138312 -34.257607 -7.604490
RightLeg -3.074944 -0.000000 0.000000
RightFoot -36.139059 -39.532870 28.712191
RightToeBase 21.794681 -0.000000 -0.000000
378
root 16.375455 35.003678 -22.495920 -151.647389 -64.315795 -201.935960
Spine -30.087372 50.303500 -24.470393
Head 14.683617 22.995194 2.032416
LeftShoulder -12.952121 -28.795323 21.819192
LeftArm -11.115316 -1.393766 -7.330617
LeftForeArm 11.741851 -0.000000 -5.134606
LeftHand -11.228732 -0.000000 -2.475376
LeftHandThumb1 -26.253704 0.000000 33.147579
RightShoulder 5.336680 2.534951 -12.696059
RightArm 52.567548 11.800949 25.082978
RightForeArm -38.759252 -0.000000 8.984055
RightHand -5.969638 0.000000 9.769769
RightHandThumb1 -24.326973 -0.000000 -32.862282
LeftUpLeg -16.386191 -32.046514 0.214643
LeftLeg -1.358940 -0.000000 0.000000
LeftFoot -9.332425 7.561116 -12.890351
LeftToeBase 30.968177 -0.000000 -0.000000
RightUpLeg 10.213553 -33.928923 -7.601628
RightLeg -3.273436 -0.000000 0.000000
RightFoot -36.009638 -39.609910 28.629312
RightToeBase 21.950952 -0.000000 -0.000000
